<?xml version="1.0" encoding="UTF-8"?><svg id="Laag_1" xmlns="http://www.w3.org/2000/svg" viewBox="0 0 164.6 152.14"><defs><style>.cls-1{fill:#fff;}.cls-2,.cls-3{fill:#2d2222;}.cls-2,.cls-4{opacity:.25;}.cls-5{fill:#544036;}.cls-6{fill:#faa;}.cls-7{fill:#634e42;}.cls-8{fill:#006837;}.cls-9{fill:#004924;}.cls-10{fill:#d8ae00;}.cls-11{fill:none;stroke:#2d2222;stroke-linecap:round;stroke-linejoin:round;stroke-width:5px;}.cls-12{fill:#31a05e;}.cls-13{fill:#ffcd00;}.cls-14{fill:#473a39;}.cls-15{fill:#3cce77;}.cls-16{fill:#1d1d1b;}.cls-17{fill:#ededed;}</style></defs><g id="WOOLY_Sad"><g id="Legs"><g><path class="cls-14" d="M73.4,144.19c-.9,0-1.72,.33-2.36,.86-.41-.16-.85-.24-1.31-.24-.3,0-.6,.04-.88,.11-.61-.46-1.37-.73-2.19-.73-2.03,0-3.67,1.64-3.67,3.67s1.64,3.67,3.67,3.67c.3,0,.6-.04,.88-.11,.61,.46,1.37,.73,2.19,.73,.9,0,1.72-.33,2.36-.86,.41,.16,.85,.24,1.31,.24,2.03,0,3.67-1.64,3.67-3.67s-1.64-3.67-3.67-3.67Z"/><path class="cls-7" d="M61.05,127.3l1.9,20.56c.77-.62,3.22-2.43,6.85-2.57,3.79-.14,6.44,1.62,7.23,2.19,1.57-6.73,3.14-13.45,4.71-20.18h-20.7Z"/></g><g><path class="cls-14" d="M91.2,144.19c.9,0,1.72,.33,2.36,.86,.41-.16,.85-.24,1.31-.24,.3,0,.6,.04,.88,.11,.61-.46,1.37-.73,2.19-.73,2.03,0,3.67,1.64,3.67,3.67s-1.64,3.67-3.67,3.67c-.3,0-.6-.04-.88-.11-.61,.46-1.37,.73-2.19,.73-.9,0-1.72-.33-2.36-.86-.41,.16-.85,.24-1.31,.24-2.03,0-3.67-1.64-3.67-3.67s1.64-3.67,3.67-3.67Z"/><path class="cls-7" d="M103.56,127.3l-1.9,20.56c-.77-.62-3.22-2.43-6.85-2.57-3.79-.14-6.44,1.62-7.23,2.19-1.57-6.73-3.14-13.45-4.71-20.18h20.7Z"/></g><g class="cls-4"><path class="cls-3" d="M62.22,135.37c.41,.16,.82,.29,1.23,.4,3.67,.24,7.47,.04,11.09-.25,1.81-.14,3.61-.32,5.42-.5,.6-2.57,1.2-5.15,1.8-7.72h-20.7l.73,7.93c.14,.05,.29,.09,.42,.15Z"/><path class="cls-3" d="M92.24,136.28c4.12,.56,7.71,.42,10.48,.11,.29-3.03,.58-6.06,.87-9.09h-20.7c.56,2.4,1.12,4.8,1.68,7.2,2.11,.7,4.69,1.38,7.67,1.78Z"/></g></g><g><rect class="cls-13" x="58.12" y="85.93" width="46.2" height="10.89"/><g><rect class="cls-10" x="68.18" y="75.06" width="23.82" height="16.31"/><path class="cls-5" d="M103.66,92.54c.16,2.11,.57,3.75,.91,4.87,1.19,3.81,3.59,7.69,2.66,9.52-.07,.13-.3,.55-.53,1.19-.17,.49-.37,1.19-.44,2.07,3.6,1.38,7.19,2.76,10.79,4.14,1.24-2.16,1.75-4.04,1.82-4.97,.06-.81-.01-1.61-.01-1.61-.04-.39-.09-.71-.13-.94-1.15-6.38-2.98-10.57-2.98-10.57-.33-.75-.84-1.86-1.55-3.18-3.52-.17-7.03-.34-10.55-.51Z"/><path class="cls-14" d="M115.59,115.45c1-.19,2.29-1.89,2.22-3.22-.15-2.78-6.36-5.71-9.91-3.97-.33,.16-1.5,.73-1.63,1.73-.14,1.05,.93,2.28,2.73,3.01,.47,1.61,2.09,2.65,3.79,2.36,.23-.04,.45-.1,2.12,.15,0,0,.37,0,.68-.05Z"/><path class="cls-2" d="M110.53,99.02c-1.69,.2-3.34,.36-4.93,.49-.36-.59-.72-1.29-1.03-2.1-.73-1.89-.91-3.61-.92-4.85,3.52,.25,7.05,.51,10.57,.76,.7,1.11,1.38,2.42,1.94,3.93,.11,.31,.22,.61,.31,.91-1.9,.32-3.88,.61-5.94,.86Z"/><path class="cls-13" d="M104.32,97.09c4.86-1.38,9.72-2.76,14.58-4.14-1.77-3.71-5.63-10.33-13.17-15.01-2.36-1.46-4.65-2.47-6.69-3.17-1.24,4.15-2.48,8.3-3.72,12.45,3,3.29,6.01,6.58,9.01,9.87Z"/></g><g><path class="cls-5" d="M58.11,94.89c-.16,2.16-.71,3.74-1.2,4.8-1.43,3.1-4.03,5.47-3.71,7.38,.18,1.05,.49,1.97,.49,1.97,.2,.58,.32,.74,.46,1.22,.14,.5,.3,1.21,.31,2.09-3.67,1.16-7.34,2.33-11.02,3.49-1.11-2.23-1.51-4.14-1.52-5.07-.01-.81,.11-1.61,.11-1.61,.06-.39,.13-.7,.18-.93,1.52-6.3,3.6-10.38,3.6-10.38,.37-.73,.95-1.81,1.73-3.09,3.52,.04,7.04,.08,10.56,.11Z"/><path class="cls-14" d="M44.84,117.05c-.98-.25-2.18-2.02-2.03-3.34,.31-2.77,6.69-5.32,10.13-3.38,.32,.18,1.45,.82,1.52,1.82,.07,1.06-1.07,2.22-2.91,2.84-.57,1.58-2.25,2.52-3.92,2.13-.23-.05-.45-.13-2.12,.02,0,0-.37-.01-.67-.09Z"/><path class="cls-2" d="M50.86,100.95c1.68,.3,3.31,.56,4.89,.78,.39-.57,.79-1.25,1.15-2.03,.84-1.84,1.12-3.55,1.21-4.79-3.53,.04-7.07,.09-10.6,.13-.77,1.07-1.53,2.34-2.17,3.81-.13,.3-.25,.6-.37,.89,1.87,.43,3.83,.84,5.88,1.21Z"/><path class="cls-13" d="M58.31,100.43c-4.87-1.34-9.74-2.69-14.61-4.03,1.26-6.29,4.3-15.65,12.14-21.26,1.46-1.04,5.51-3.94,7.89-2.56,2.13,1.24,2.18,5.5,2.22,9.81,.02,2.24-.16,4.1-.34,5.41-1.2,.89-2.78,2.28-4.2,4.34-2.26,3.28-2.9,6.52-3.11,8.29Z"/></g><g><path class="cls-10" d="M114.07,85.3c-1.63-2.21-4.36-5.3-8.51-7.92-2.45-1.54-4.78-2.53-6.69-3.17-.98,2.27-1.95,4.55-2.93,6.82,2.4,0,5.42,.21,8.81,.97,3.85,.86,6.99,2.14,9.32,3.3Z"/><path class="cls-10" d="M65.92,80.11c-.09-3.44-.43-6.5-2.18-7.52-2.38-1.38-6.43,1.51-7.89,2.56-4.13,2.95-6.92,6.95-8.83,10.99,2.64-1.47,6.08-3.08,10.27-4.31,3.21-.94,6.14-1.45,8.63-1.72Z"/></g><path class="cls-8" d="M91.6,130.1c.28,.03,.61,.07,.78,.07,.26,0,.52,0,.77,.01,1.56-.25,3.19,0,4.51,.82,.03,.02,.05,.03,.08,.05,.63,.03,1.27,.06,1.9,.09,.84,.03,1.67,.08,2.51,.09,.34,0,.68-.02,1.02-.03,.06-.01,.12-.03,.19-.06,.85-.27,1.7-.53,2.55-.8,.37-.12,.73-.24,1.1-.37,.05-.02,.23-.08,.41-.14,.2-.09,.51-.22,.58-.26,.42-.21,.82-.45,1.22-.69,.02-.03,.04-.05,.07-.07,.23-.25,.5-.49,.73-.74,1.38-1.5,3.29-2.08,5.17-1.93,1.44-3.88-2.14-12.04-9.2-28.12-.01-.02-.04-.09-.05-.11,0,0-.52-.35-10.33-6.9,2.03-6.88,4.06-13.77,6.09-20.65l-9.04-.57-4.09,19.7h-14.87l-3.31-16.66-6.85,1.62,2.47,15.99c-7.28,4.74-11.04,7.19-11.04,7.19,0,0,0,0,0,.02-1.89,6.56-2.55,11.44-2.85,13.25-1.36,8.19-4.8,10.46-5.04,13.13,.73,.33,1.38,.78,1.9,1.39,.06,.07,.1,.12,.13,.17,.26,.14,.52,.28,.78,.41,.72,.37,1.4,.74,2.06,1.21,.3,.21,.69,.42,.97,.65,.08,.03,.17,.06,.25,.08,.83,.24,1.69,.38,2.55,.52,1.02,.17,2.03,.37,3.04,.56,.43,.08,.86,.16,1.29,.23-.03,0,.63,.1,1,.16,.32,.03,1.03,.12,1.12,.13,.43,.04,.86,.06,1.3,.08,.43,.01,.86,.01,1.29,0,.49-.27,1.02-.45,1.58-.53,.15-.03,.25-.05,.33-.06,.16-.08,.31-.17,.47-.25,.89-.44,1.82-.82,2.75-1.13,1.11-.37,2.26-.57,3.41-.79,2.64-.52,5.24-1.35,7.96-1.37,3.23-.03,6.24,1.85,8.86,3.58,.5,.33,1,.67,1.47,1.04Z"/><g><path class="cls-9" d="M96.99,86.41c1.58-5.35,3.16-10.7,4.73-16.05l-9.04-.57-3.19,15.37c2.57,.17,5.09,.57,7.5,1.25Z"/><path class="cls-9" d="M72.8,84.9c-.8-4.02-1.6-8.04-2.4-12.06l-6.85,1.62c.59,3.82,1.18,7.65,1.78,11.47,1.13-.29,2.41-.56,3.84-.75,1.32-.18,2.54-.26,3.64-.28Z"/><path class="cls-9" d="M110.21,123.47c-5.11,6.24-16.92,6.89-22.77,2.36-1.9-1.47-3.02-3.38-5.71-3.78-2.78-.42-4.82,1.12-6.92,2.23-7.1,3.76-17.64,4.04-21.92-.45-.89-.93-2.3-2.9-2.43-6.92-1.96,2.24-4.19,5.58-3.19,8.56,0,0,.07,.19,.16,.39,.83,1.81,4.18,5.46,13.16,6.56,8.85,1.08,10.1-1.91,19.61-1.52,7.12,.29,6.81,1.99,13.61,2.28,2.96,.13,17.97,.79,21.32-6.85,.39-.9,1.93-4.88-2.08-11.67-.05,4.96-1.94,7.7-2.85,8.82Z"/></g><g><path class="cls-12" d="M70.12,102.06c-.03-1.27,.75-2.41,1.91-2.82,1.05-.37,2.24-.09,3.04,.73,.9,.53,2.92,1.55,5.69,1.59,2.96,.04,5.12-1.07,6.02-1.59,.89-.99,2.25-1.24,3.19-.69,.9,.53,1.07,1.57,1.09,1.74,.19,.87,1.04,5.29-1.74,9.4-.53,.78-3.68,5.24-9.11,5.16-4.8-.07-7.67-3.62-8.09-4.16-3.17-4.06-2.14-8.74-2-9.35Z"/><g><circle class="cls-12" cx="69.74" cy="89.35" r="2.24"/><circle class="cls-15" cx="69.74" cy="89.35" r=".96"/></g><g><circle class="cls-12" cx="91.73" cy="90.31" r="2.24"/><circle class="cls-15" cx="91.73" cy="90.31" r=".96"/></g></g><g><g><path class="cls-13" d="M85.28,106.32c0-.9-.68-1.64-1.52-1.64-.18,0-.35,.04-.51,.1,0-.03,0-.07,0-.1,0-.9-.68-1.64-1.52-1.64-.54,0-1.02,.31-1.28,.76-.27-.46-.74-.76-1.28-.76-.84,0-1.52,.73-1.52,1.64,0,.26,.06,.5,.16,.71-.2-.11-.43-.18-.67-.18-.84,0-1.52,.73-1.52,1.64,0,.76,.48,1.39,1.13,1.57-.16,.26-.25,.57-.25,.9,0,.9,.68,1.64,1.52,1.64,.49,0,.91-.25,1.19-.63,.15,.74,.76,1.3,1.49,1.3,.84,0,1.52-.73,1.52-1.64,0-.04,0-.09-.01-.13,.27,.29,.65,.46,1.06,.46,.84,0,1.52-.73,1.52-1.64,0-.36-.11-.68-.29-.95,.47-.28,.79-.81,.79-1.42Z"/><circle class="cls-14" cx="80.44" cy="107.34" r="1.52"/></g><g><circle class="cls-15" cx="89.2" cy="100.78" r=".68"/><circle class="cls-15" cx="72.78" cy="101" r=".68"/><ellipse class="cls-15" cx="71.48" cy="104.13" rx=".44" ry=".87"/><ellipse class="cls-15" cx="71.5" cy="107.38" rx=".44" ry=".87" transform="translate(-20.36 16.8) rotate(-11.74)"/><ellipse class="cls-15" cx="72.71" cy="110.34" rx=".44" ry=".87" transform="translate(-41.94 44.64) rotate(-26.8)"/><ellipse class="cls-15" cx="75.03" cy="112.61" rx=".44" ry=".87" transform="translate(-60.23 116.42) rotate(-57.94)"/><ellipse class="cls-15" cx="77.99" cy="113.67" rx=".44" ry=".87" transform="translate(-56.39 144.39) rotate(-68.42)"/><ellipse class="cls-15" cx="82.02" cy="113.67" rx=".87" ry=".44" transform="translate(-16.82 14.27) rotate(-9.03)"/><ellipse class="cls-15" cx="85.72" cy="111.76" rx=".87" ry=".44" transform="translate(-44.4 57.83) rotate(-30)"/><ellipse class="cls-15" cx="88.2" cy="109.03" rx=".87" ry=".44" transform="translate(-52 112.16) rotate(-52.31)"/><ellipse class="cls-15" cx="89.71" cy="106.3" rx=".87" ry=".44" transform="translate(-22.31 188.75) rotate(-86.19)"/><ellipse class="cls-15" cx="90.07" cy="103.52" rx=".44" ry=".87" transform="translate(-6.59 6.13) rotate(-3.76)"/></g></g></g><g id="Head"><ellipse class="cls-14" cx="81.64" cy="77.26" rx="10.36" ry="6.62"/><ellipse class="cls-7" cx="82.3" cy="44.83" rx="41.78" ry="35.43"/><g class="cls-4"><path class="cls-3" d="M70.59,20.68c2.05-4.03,2.63-7.88,2.79-10.47-18.78,3.47-32.85,17.65-32.85,34.62,0,2.19,.24,4.33,.68,6.41,4.03-6.07,8.05-10.3,11-13.05,8.27-7.74,14.43-9.76,18.37-17.51Z"/><path class="cls-3" d="M98.19,22.01c1.79,8.02,9.87,10.04,16.94,19.51,2.08,2.79,4.96,7.4,6.9,14.35,.71-1.84,1.52-4.43,1.88-7.61,.13-1.13,.19-2.27,.19-3.43,0-14.48-10.24-26.93-24.92-32.42-.82,2.07-1.89,5.64-1,9.61Z"/></g><g><g><ellipse class="cls-1" cx="63.27" cy="41.59" rx="15.63" ry="15.21"/><path class="cls-16" d="M65,40.46v-7.12c-.56-.11-1.13-.17-1.72-.17-4.79,0-8.67,3.77-8.67,8.42s3.88,8.42,8.67,8.42,8.67-3.77,8.67-8.42c0-.39-.03-.76-.09-1.13h-6.86Z"/></g><g><ellipse class="cls-1" cx="101.33" cy="41.59" rx="15.63" ry="15.21"/><path class="cls-16" d="M101.33,33.17c-.59,0-1.17,.06-1.73,.17v7.12h-6.86c-.05,.37-.09,.75-.09,1.13,0,4.65,3.88,8.42,8.67,8.42s8.67-3.77,8.67-8.42-3.88-8.42-8.67-8.42Z"/></g></g><path class="cls-6" d="M88.47,55.46c1.54,3.04-1.8,9.45-6.16,9.45-4.36,0-7.7-6.41-6.16-9.45,1.78-3.51,10.55-3.51,12.33,0Z"/><path class="cls-11" d="M89.99,73.69c-.29-.41-3.07-4.22-8.1-4.35-4.9-.13-7.85,3.34-8.19,3.75"/></g><g id="Ears"><g><path class="cls-7" d="M133.41,17.11c2.48,17,8.06,23.04,12.97,25.27,4.8,2.18,10.18,1.43,14.66,6.19,2.08,2.2,4.45,6.33,3.23,9.42-2.17,5.51-15.37,6.84-24.65,3.14-14.1-5.61-17.88-22.32-18.37-24.65,.01-2.06,.32-5.46,2.06-9.14,2.99-6.31,8.2-9.28,10.09-10.23Z"/><path class="cls-6" d="M138.77,53.32c-9.66-6.7-12.21-16.59-12.76-18.99-1.48-9.83-3.08-14.76-4.79-14.8-.68-.02-1.38,.75-2.09,2.28,.29,2.03,.59,4.06,.88,6.1-.11,.27-.18,.56-.2,.82-.03,.6,.26,.58,.62,2.08,.27,1.89,.55,3.77,.82,5.66,.49,2.34,4.27,19.04,18.37,24.65,9.25,3.68,22.41,2.37,24.63-3.11-1.94,.46-14.16,3.16-25.48-4.7Z"/><g><ellipse class="cls-14" cx="155.22" cy="48.2" rx="1.32" ry="3.32" transform="translate(57.73 178.25) rotate(-70.4)"/><ellipse class="cls-14" cx="148.51" cy="45.81" rx=".64" ry="1.5" transform="translate(65.16 176.98) rotate(-74.71)"/></g></g><g><path class="cls-7" d="M34.68,12.52c-3.79,20.76-10.5,27.72-16.46,29.86-4.36,1.56-10.12,1.37-14.66,6.19-2.08,2.2-4.45,6.33-3.23,9.42,2.16,5.49,15.8,6.54,24.65,3.14,19.41-7.46,21.3-38.48,21.38-40.17-3.89-2.81-7.78-5.63-11.68-8.44Z"/><path class="cls-6" d="M25.83,53.32c9.66-6.7,12.21-16.59,12.76-18.99,2.24-10.4,4.22-15.55,5.96-15.47,.82,.04,1.58,1.24,2.28,3.62-1.16,4.66-2.32,9.33-3.49,13.99-.49,2.34-4.27,19.04-18.37,24.65-9.25,3.68-22.41,2.37-24.63-3.11,1.94,.46,14.16,3.16,25.48-4.7Z"/><g><ellipse class="cls-14" cx="9.82" cy="48.91" rx="3.32" ry="1.32" transform="translate(-15.84 6.13) rotate(-19.6)"/><ellipse class="cls-14" cx="16.53" cy="46.52" rx="1.5" ry=".64" transform="translate(-11.68 6.01) rotate(-15.29)"/></g></g><path class="cls-17" d="M67.36,15.08c1.06-4.69-1.88-9.34-6.57-10.4-.56-.13-1.13-.2-1.68-.21-1.47-2.01-3.64-3.53-6.26-4.12-5.74-1.3-11.44,2.31-12.74,8.04-.03,.13-.05,.26-.08,.38-3.15,.73-5.77,3.2-6.53,6.56-1.06,4.69,1.88,9.34,6.57,10.4,.78,.18,1.55,.24,2.31,.2,.91,2.84,3.25,5.15,6.37,5.85,4.69,1.06,9.34-1.88,10.4-6.57,.26-1.14,.28-2.29,.09-3.37,3.83-.16,7.23-2.86,8.11-6.78Z"/><path class="cls-17" d="M132.32,27.94c3.93-2.77,4.87-8.2,2.1-12.12-.33-.47-.7-.9-1.11-1.28,.26-2.48-.34-5.06-1.89-7.25-3.39-4.81-10.04-5.96-14.84-2.57-.11,.08-.21,.15-.31,.23-2.83-1.57-6.43-1.5-9.25,.49-3.93,2.77-4.87,8.2-2.1,12.12,.46,.65,.99,1.22,1.57,1.7-1.23,2.72-1.04,6,.81,8.62,2.77,3.93,8.2,4.87,12.12,2.1,.96-.68,1.74-1.51,2.33-2.44,2.95,2.44,7.28,2.72,10.56,.41Z"/><ellipse class="cls-1" cx="122.96" cy="13.07" rx="10.23" ry="10.57" transform="translate(37.44 102.38) rotate(-52.31)"/><ellipse class="cls-1" cx="50.14" cy="10.24" rx="10.85" ry="10.23" transform="translate(-.85 5.89) rotate(-6.66)"/></g></g></svg>