<?xml version="1.0" encoding="UTF-8"?><svg id="Mascot" xmlns="http://www.w3.org/2000/svg" viewBox="0 0 451.15 510.9"><defs><style>.cls-1{fill:#fff;}.cls-2{fill:#faa;}.cls-3{fill:#634e42;}.cls-4{fill:#006837;}.cls-5{fill:#004924;}.cls-6{fill:#d8ae00;}.cls-7{fill:none;stroke:#2d2222;stroke-linecap:round;stroke-linejoin:round;stroke-width:5px;}.cls-8{fill:#2d2222;}.cls-9{fill:#31a05e;}.cls-10{fill:#ffcd00;}.cls-11{fill:#473a39;}.cls-12{fill:#3cce77;}.cls-13{opacity:.25;}.cls-14{fill:#1d1d1b;}.cls-15{fill:#ededed;}</style></defs><g id="Cloud"><path class="cls-15" d="M253.47,356.41c14.18,26.04,1.13,57.03-29.15,69.22-3.64,1.46-7.36,2.58-11.11,3.39-6.96,13.65-19.48,25.28-36.41,32.1-37.07,14.93-81.2,1.19-98.56-30.68-.39-.71-.74-1.43-1.09-2.14-22.52-.22-44-11.27-54.2-29.99-14.18-26.04-1.13-57.03,29.15-69.22,5.01-2.02,10.18-3.38,15.38-4.15,1.92-17.79,14.43-34.26,34.61-42.38,30.28-12.19,66.33-.97,80.51,25.06,3.46,6.35,5.29,13,5.65,19.6,26.26-3.95,53.38,7.45,65.24,29.2Z"/><ellipse class="cls-1" cx="145.62" cy="405.92" rx="73.48" ry="61.25" transform="translate(-9.71 3.62) rotate(-1.38)"/></g><g id="Mascotte"><g id="Legs"><g><path class="cls-11" d="M201.18,395.19c-2.47,0-4.72,.89-6.47,2.36-1.11-.43-2.32-.67-3.58-.67-.83,0-1.64,.11-2.41,.3-1.68-1.25-3.75-2-6-2-5.55,0-10.05,4.5-10.05,10.05s4.5,10.05,10.05,10.05c.83,0,1.64-.11,2.41-.3,1.68,1.25,3.75,2,6,2,2.47,0,4.72-.89,6.47-2.36,1.11,.43,2.32,.67,3.58,.67,5.55,0,10.05-4.5,10.05-10.05s-4.5-10.05-10.05-10.05Z"/><path class="cls-3" d="M167.31,348.89l5.22,56.35c2.12-1.71,8.82-6.67,18.78-7.04,10.39-.39,17.66,4.44,19.83,6,4.3-18.43,8.6-36.87,12.9-55.3h-56.72Z"/></g><g><path class="cls-11" d="M249.97,395.19c2.47,0,4.72,.89,6.47,2.36,1.11-.43,2.32-.67,3.58-.67,.83,0,1.64,.11,2.41,.3,1.68-1.25,3.75-2,6-2,5.55,0,10.05,4.5,10.05,10.05,0,5.55-4.5,10.05-10.05,10.05-.83,0-1.64-.11-2.41-.3-1.68,1.25-3.75,2-6,2-2.47,0-4.72-.89-6.47-2.36-1.11,.43-2.32,.67-3.58,.67-5.55,0-10.05-4.5-10.05-10.05,0-5.55,4.5-10.05,10.05-10.05Z"/><path class="cls-3" d="M283.84,348.89l-5.22,56.35c-2.12-1.71-8.82-6.67-18.78-7.04-10.39-.39-17.66,4.44-19.83,6-4.3-18.43-8.6-36.87-12.9-55.3h56.72Z"/></g><g class="cls-13"><path class="cls-8" d="M170.54,371.01c1.12,.45,2.24,.81,3.37,1.11,10.07,.64,20.48,.1,30.4-.69,4.95-.39,9.91-.87,14.86-1.38,1.64-7.05,3.29-14.1,4.93-21.16h-56.72l2.01,21.72c.39,.12,.78,.25,1.15,.4Z"/><path class="cls-8" d="M252.8,373.51c11.29,1.53,21.13,1.16,28.72,.3,.79-8.3,1.58-16.61,2.38-24.91h-56.72c1.53,6.58,3.07,13.16,4.6,19.74,5.8,1.93,12.87,3.77,21.03,4.88Z"/></g></g><g id="Arms"><g><path class="cls-11" d="M360.28,269.64c0-5.53-5.79-9.5-10.31-10.08-9.74-1.25-21.51,12.21-19.12,22.6,.95,4.14,4.65,10.08,10.31,10.08,4.2,0,7.8-2.45,9.41-5.97,4.58-.52,8.14-4.41,8.14-9.13,0-.64-.07-1.27-.19-1.88,1.11-1.61,1.77-3.54,1.77-5.62Z"/><path class="cls-3" d="M316,229.89c2.86,1.82,6.66,4.71,10.04,9.13,7.16,9.34,7.6,19.45,12.91,20.15,1.56,.2,6.87,.04,9.01,.22,.06,0,1.72,.14,1.72,.14h0s-6.05,1.75-10.25,4.82c-.64,.47-4.14,3.09-5.97,6.95-4.11,8.7,2.65,18.81,3.25,19.67-4.53-1.49-7.19-3.81-9.11-5.39-6.05-4.98-5.43-7.94-10.57-11.74-4.35-3.22-6.37-2.08-14.91-5.79-4.83-2.1-8.54-4.36-10.91-5.95,8.26-10.74,16.52-21.48,24.78-32.22Z"/></g><g><path class="cls-11" d="M90.87,268.38c0-5.53,5.79-9.5,10.31-10.08,9.74-1.25,21.51,12.21,19.12,22.6-.95,4.14-4.65,10.08-10.31,10.08-4.2,0-7.8-2.45-9.41-5.97-4.58-.52-8.14-4.41-8.14-9.13,0-.64,.07-1.27,.19-1.88-1.11-1.61-1.77-3.54-1.77-5.62Z"/><path class="cls-3" d="M135.15,228.63c-2.86,1.82-6.66,4.71-10.04,9.13-7.16,9.34-7.6,19.45-12.91,20.15-1.56,.2-6.87,.04-9.01,.22-.06,0-1.72,.14-1.72,.14,0,0,6.05,1.75,10.25,4.82,.64,.47,4.14,3.09,5.97,6.95,4.11,8.7-2.65,18.81-3.25,19.67,4.53-1.49,7.19-3.81,9.11-5.39,6.05-4.98,5.43-7.94,10.57-11.74,4.35-3.22,6.37-2.08,14.91-5.79,4.83-2.1,8.54-4.36,10.91-5.95-8.26-10.74-16.52-21.48-24.78-32.22Z"/></g><g class="cls-13"><path class="cls-8" d="M317.52,256.24c1.41-1.58,2.82-2.81,4.7-5.35,2.79-3.77,4.37-7.37,5.28-9.91-.43-.65-.89-1.31-1.4-1.96-3.38-4.42-7.19-7.31-10.04-9.13-8.26,10.74-16.52,21.48-24.78,32.22,2.38,1.58,6.08,3.84,10.91,5.95,3.42,1.49,5.79,2.2,7.68,2.72,2.05-7.22,5.12-11.71,7.65-14.53Z"/><path class="cls-8" d="M135.21,228.63c-2.86,1.82-6.66,4.71-10.04,9.13-4.74,6.18-6.54,12.69-8.75,16.59,.09,.29,.25,.73,.49,1.22,1.96,4.07,6.31,5.56,8.49,6.57,2.87,1.32,6.59,3.91,10.17,9.51,3.49-2.08,5.94-1.57,13.52-4.86,4.83-2.1,8.54-4.36,10.91-5.95-8.26-10.74-16.52-21.48-24.78-32.22Z"/></g></g><g><path class="cls-10" d="M228.96,187.63c-25.52,2.88-46.26,7.86-61.3,12.26-28.99,8.47-34.36,14.04-36.78,19.83-5.07,12.08,.07,31.4,10.7,37.3,3.51,1.95,6.94,2.07,9.27,5.52,3.29,4.89,1.35,12.02-.92,17.44,47.83-.09,95.65-.17,143.48-.26-2.09-4.95-3.84-11.1-1.04-14.35,1.37-1.59,3.33-1.9,4.17-2.09,10.21-2.26,24.09-24.06,18.52-38.35-.94-2.42-6.63-6.83-18-15.65-10.26-7.96-14.85-10.62-20.35-12.52-5.1-1.76-9.55-2.37-12.52-2.61-11.74-2.17-23.48-4.34-35.22-6.52Z"/><path class="cls-6" d="M257.16,279.78c-3.99-5.67-6.41-12.6-6.75-20.15-.81-18.14,18.54-32.47,35.16-35.16,6.84-1.1,12.58-.1,15.91,.72,4.65,.28,9.3,.56,13.95,.84-.12-.37-.24-.74-.38-1.1-.94-2.42-6.63-6.83-18-15.65-10.26-7.96-14.85-10.62-20.35-12.52-5.1-1.76-9.55-2.37-12.52-2.61-11.74-2.17-23.48-4.34-35.22-6.52-25.52,2.88-46.26,7.86-61.3,12.26-17.69,5.17-26.57,9.26-31.37,12.97-5.23,3.8-5.72,5.78-5.41,6.85,1.91,6.57,38.33-6.61,52.43,9.13,4.69,5.24,5.56,12.17,7.05,24.15,1.39,11.16,.39,20.55-.74,26.91,22.51-.04,45.03-.08,67.54-.12Z"/><path class="cls-4" d="M251.05,356.59c.77,.09,1.67,.19,2.13,.2,.71,.01,1.41,.02,2.12,.03,4.26-.69,8.73-.02,12.37,2.24,.09,.05,.15,.09,.22,.14,1.74,.09,3.48,.18,5.22,.24,2.29,.08,4.59,.23,6.88,.23,.94,0,1.87-.05,2.8-.08,.16-.04,.33-.09,.53-.15,2.33-.73,4.66-1.45,6.99-2.2,1.01-.32,2.01-.65,3.01-1,.13-.05,.64-.23,1.13-.4,.54-.24,1.4-.6,1.6-.7,1.15-.58,2.24-1.24,3.34-1.9,.06-.07,.12-.14,.18-.2,.63-.7,1.37-1.34,2-2.03,3.79-4.11,9.02-5.69,14.18-5.28,3.96-10.64-5.86-33-25.21-77.07-.03-.07-.1-.24-.13-.31,0,0-1.43-.95-28.3-18.91,5.57-18.87,11.13-37.74,16.7-56.61l-24.78-1.57-11.22,54h-40.75l-9.07-45.65-18.78,4.43,6.78,43.83c-19.95,12.98-30.26,19.7-30.26,19.7,0,0,0,.02-.02,.06-5.17,17.98-6.98,31.36-7.81,36.33-3.72,22.45-13.15,28.67-13.8,35.99,1.99,.89,3.79,2.15,5.22,3.82,.16,.18,.28,.33,.37,.46,.71,.37,1.41,.76,2.13,1.13,1.99,1.02,3.83,2.04,5.66,3.31,.83,.58,1.88,1.14,2.65,1.79,.23,.07,.46,.16,.69,.22,2.29,.66,4.64,1.03,6.98,1.43,2.78,.47,5.55,1.02,8.33,1.54,1.17,.22,2.35,.44,3.52,.64-.08-.01,1.72,.27,2.73,.44,.87,.09,2.81,.32,3.08,.34,1.18,.1,2.37,.18,3.56,.22,1.19,.04,2.37,.03,3.55,0,1.34-.73,2.78-1.24,4.32-1.46,.4-.08,.69-.13,.91-.16,.43-.23,.85-.47,1.28-.69,2.43-1.2,4.98-2.26,7.55-3.11,3.05-1.01,6.19-1.56,9.33-2.18,7.22-1.42,14.37-3.71,21.8-3.77,8.86-.07,17.1,5.07,24.28,9.81,1.36,.9,2.74,1.84,4.03,2.84Z"/><g><path class="cls-5" d="M265.82,236.83c4.32-14.66,8.65-29.32,12.97-43.99l-24.78-1.57-8.76,42.13c7.06,.48,13.96,1.55,20.56,3.42Z"/><path class="cls-5" d="M199.53,232.68c-2.19-11.02-4.38-22.04-6.57-33.05l-18.78,4.43c1.62,10.48,3.24,20.96,4.87,31.45,3.09-.81,6.61-1.54,10.52-2.07,3.62-.48,6.96-.7,9.97-.76Z"/><path class="cls-5" d="M302.06,338.41c-14.01,17.11-46.37,18.9-62.41,6.46-5.21-4.04-8.27-9.26-15.65-10.37-7.62-1.15-13.21,3.08-18.96,6.12-19.46,10.3-48.34,11.07-60.08-1.23-2.43-2.54-6.31-7.94-6.65-18.96-5.36,6.15-11.48,15.3-8.73,23.46,0,0,.18,.52,.44,1.08,2.27,4.95,11.45,14.96,36.08,17.97,24.26,2.97,27.67-5.24,53.74-4.17,19.52,.8,18.67,5.44,37.3,6.26,8.11,.36,49.26,2.16,58.43-18.78,1.08-2.47,5.28-13.38-5.7-31.99-.15,13.61-5.3,21.11-7.8,24.16Z"/></g><g><path class="cls-9" d="M192.18,279.72c-.07-3.48,2.07-6.61,5.25-7.73,2.87-1.02,6.13-.23,8.32,2,2.47,1.45,8.01,4.26,15.59,4.37,8.1,.12,14.03-2.92,16.5-4.37,2.44-2.73,6.16-3.4,8.74-1.89,2.46,1.44,2.93,4.31,3,4.76,.51,2.39,2.84,14.5-4.76,25.76-1.44,2.14-10.08,14.37-24.98,14.15-13.15-.19-21.01-9.92-22.17-11.41-8.68-11.12-5.87-23.96-5.48-25.63Z"/><g><circle class="cls-9" cx="191.14" cy="244.89" r="6.13"/><circle class="cls-12" cx="191.14" cy="244.89" r="2.62"/></g><g><circle class="cls-9" cx="251.42" cy="247.52" r="6.13"/><circle class="cls-12" cx="251.42" cy="247.52" r="2.62"/></g></g><g><g><path class="cls-10" d="M233.74,291.4c0-2.48-1.87-4.48-4.17-4.48-.49,0-.96,.11-1.4,.28,0-.09,.03-.18,.03-.28,0-2.48-1.87-4.48-4.17-4.48-1.49,0-2.78,.84-3.52,2.1-.74-1.26-2.04-2.1-3.52-2.1-2.31,0-4.17,2.01-4.17,4.48,0,.7,.16,1.36,.43,1.95-.56-.3-1.18-.48-1.85-.48-2.31,0-4.17,2.01-4.17,4.48,0,2.08,1.32,3.81,3.11,4.32-.44,.71-.69,1.55-.69,2.47,0,2.48,1.87,4.48,4.17,4.48,1.33,0,2.5-.68,3.27-1.72,.4,2.03,2.07,3.55,4.08,3.55,2.31,0,4.17-2.01,4.17-4.48,0-.12-.02-.24-.03-.36,.75,.78,1.77,1.27,2.9,1.27,2.31,0,4.17-2.01,4.17-4.48,0-.98-.3-1.87-.79-2.61,1.28-.76,2.16-2.22,2.16-3.9Z"/><circle class="cls-11" cx="220.48" cy="294.21" r="4.17"/></g><g><circle class="cls-12" cx="244.47" cy="276.23" r="1.86"/><circle class="cls-12" cx="199.47" cy="276.82" r="1.86"/><ellipse class="cls-12" cx="195.9" cy="285.39" rx="1.2" ry="2.4"/><ellipse class="cls-12" cx="195.98" cy="294.3" rx="1.2" ry="2.4" transform="translate(-55.8 46.05) rotate(-11.74)"/><ellipse class="cls-12" cx="199.29" cy="302.41" rx="1.2" ry="2.4" transform="translate(-114.94 122.34) rotate(-26.8)"/><ellipse class="cls-12" cx="205.63" cy="308.64" rx="1.2" ry="2.4" transform="translate(-165.09 319.07) rotate(-57.94)"/><ellipse class="cls-12" cx="213.76" cy="311.54" rx="1.2" ry="2.4" transform="translate(-154.56 395.73) rotate(-68.42)"/><ellipse class="cls-12" cx="224.8" cy="311.54" rx="2.4" ry="1.2" transform="translate(-46.09 39.12) rotate(-9.03)"/><ellipse class="cls-12" cx="234.93" cy="306.31" rx="2.4" ry="1.2" transform="translate(-121.68 158.5) rotate(-30)"/><ellipse class="cls-12" cx="241.73" cy="298.82" rx="2.4" ry="1.2" transform="translate(-142.53 307.41) rotate(-52.31)"/><ellipse class="cls-12" cx="245.89" cy="291.34" rx="2.4" ry="1.2" transform="translate(-61.14 517.33) rotate(-86.19)"/><ellipse class="cls-12" cx="246.88" cy="283.72" rx="1.2" ry="2.4" transform="translate(-18.07 16.8) rotate(-3.76)"/></g></g></g><g id="Head"><ellipse class="cls-11" cx="223.75" cy="211.76" rx="28.4" ry="18.13"/><ellipse class="cls-3" cx="225.57" cy="122.86" rx="114.52" ry="97.12"/><g class="cls-13"><path class="cls-8" d="M193.48,56.67c5.62-11.05,7.19-21.61,7.66-28.69-51.48,9.51-90.02,48.38-90.02,94.88,0,6,.65,11.88,1.88,17.58,11.06-16.64,22.07-28.22,30.14-35.77,22.68-21.21,39.54-26.76,50.35-48Z"/><path class="cls-8" d="M269.13,60.33c4.91,21.99,27.04,27.5,46.43,53.48,5.71,7.64,13.59,20.29,18.91,39.33,1.96-5.05,4.16-12.15,5.15-20.86,.35-3.1,.53-6.23,.53-9.41,0-39.68-28.07-73.8-68.29-88.87-2.24,5.66-5.17,15.45-2.74,26.33Z"/></g><g><g><ellipse class="cls-1" cx="277.73" cy="114" rx="42.85" ry="41.67"/><path class="cls-14" d="M274.11,87c-3.37,0-6.58,.69-9.49,1.92v13.34h-12.88c-.91,2.44-1.4,5.08-1.4,7.83,0,12.75,10.64,23.09,23.77,23.09s23.77-10.34,23.77-23.09-10.64-23.09-23.77-23.09Z"/></g><g><ellipse class="cls-1" cx="173.42" cy="114" rx="42.85" ry="41.67"/><path class="cls-14" d="M177.04,87c3.37,0,6.58,.69,9.49,1.92v13.34s12.88,0,12.88,0c.91,2.44,1.4,5.08,1.4,7.83,0,12.75-10.64,23.09-23.77,23.09-13.13,0-23.77-10.34-23.77-23.09s10.64-23.09,23.77-23.09Z"/></g></g><path class="cls-2" d="M242.47,152c4.21,8.33-4.94,25.9-16.89,25.89-11.95,0-21.1-17.56-16.89-25.89,4.87-9.63,28.92-9.63,33.78,0Z"/><path class="cls-7" d="M202.76,182.41c5.6,9.04,15.8,13.99,25.91,12.6,13.15-1.81,19.2-13.39,19.72-14.43"/></g><g id="Ears"><g><path class="cls-3" d="M365.65,46.89c6.78,46.59,22.09,63.14,35.56,69.26,13.16,5.98,27.89,3.93,40.17,16.96,5.69,6.04,12.19,17.34,8.85,25.82-5.94,15.1-42.13,18.74-67.55,8.62-38.63-15.38-49-61.17-50.35-67.57,.04-5.66,.88-14.95,5.66-25.04,8.19-17.3,22.48-25.42,27.65-28.04Z"/><path class="cls-2" d="M380.34,146.15c-26.47-18.36-33.46-45.47-34.97-52.04-4.07-26.94-8.44-40.46-13.12-40.57-1.86-.04-3.78,2.04-5.74,6.26,.81,5.57,1.61,11.14,2.42,16.71-.31,.75-.5,1.53-.54,2.25-.09,1.66,.7,1.6,1.7,5.71,.75,5.17,1.5,10.34,2.25,15.51,1.35,6.4,11.71,52.19,50.35,67.57,25.36,10.09,61.43,6.5,67.5-8.51-5.32,1.27-38.81,8.65-69.85-12.88Z"/><g><ellipse class="cls-11" cx="425.42" cy="132.1" rx="3.62" ry="9.1" transform="translate(158.24 488.54) rotate(-70.4)"/><ellipse class="cls-11" cx="407.04" cy="125.55" rx="1.74" ry="4.1" transform="translate(178.59 485.07) rotate(-74.71)"/></g></g><g><path class="cls-3" d="M95.05,34.32c-10.37,56.89-28.77,75.97-45.12,81.83-11.94,4.28-27.74,3.76-40.17,16.96-5.69,6.04-12.19,17.34-8.85,25.82,5.92,15.05,43.3,17.94,67.55,8.62,53.2-20.44,58.37-105.48,58.6-110.09-10.67-7.71-21.33-15.42-32-23.14Z"/><path class="cls-2" d="M70.81,146.15c26.47-18.36,33.46-45.47,34.97-52.04,6.13-28.49,11.58-42.62,16.33-42.4,2.24,.11,4.33,3.41,6.26,9.91-3.18,12.78-6.37,25.57-9.55,38.35-1.35,6.4-11.71,52.19-50.35,67.57-25.36,10.09-61.43,6.5-67.5-8.51,5.32,1.27,38.81,8.65,69.85-12.88Z"/><g><ellipse class="cls-11" cx="26.92" cy="134.06" rx="9.1" ry="3.62" transform="translate(-43.42 16.8) rotate(-19.6)"/><ellipse class="cls-11" cx="45.3" cy="127.51" rx="4.1" ry="1.74" transform="translate(-32.02 16.46) rotate(-15.29)"/></g></g><path class="cls-15" d="M184.61,41.33c2.9-12.85-5.16-25.61-18.01-28.51-1.54-.35-3.08-.53-4.61-.58-4.02-5.52-9.97-9.67-17.16-11.29-15.73-3.55-31.36,6.32-34.91,22.04-.08,.35-.14,.7-.21,1.05-8.64,2-15.82,8.76-17.91,17.99-2.9,12.85,5.16,25.61,18.01,28.51,2.13,.48,4.25,.65,6.32,.56,2.48,7.8,8.91,14.11,17.47,16.05,12.85,2.9,25.61-5.16,28.51-18.01,.71-3.13,.76-6.26,.25-9.25,10.49-.45,19.81-7.84,22.23-18.57Z"/><path class="cls-15" d="M362.65,76.58c10.76-7.59,13.33-22.47,5.74-33.23-.91-1.29-1.93-2.46-3.03-3.52,.72-6.79-.92-13.86-5.17-19.88-9.29-13.18-27.51-16.32-40.68-7.03-.29,.21-.58,.42-.86,.64-7.75-4.31-17.61-4.1-25.35,1.35-10.76,7.59-13.33,22.47-5.74,33.23,1.26,1.78,2.71,3.33,4.32,4.65-3.38,7.45-2.84,16.45,2.22,23.62,7.59,10.76,22.47,13.33,33.23,5.74,2.63-1.85,4.76-4.14,6.38-6.69,8.09,6.7,19.95,7.46,28.95,1.12Z"/><ellipse class="cls-1" cx="337" cy="35.82" rx="28.05" ry="28.96" transform="translate(102.61 280.6) rotate(-52.31)"/><ellipse class="cls-1" cx="137.43" cy="28.07" rx="29.74" ry="28.05" transform="translate(-2.33 16.13) rotate(-6.66)"/></g></g><g id="Cloud-2"><path class="cls-15" d="M188.92,400.12c-14.18,26.04-1.13,57.03,29.15,69.22,3.64,1.46,7.36,2.58,11.11,3.39,6.96,13.65,19.48,25.28,36.41,32.1,37.07,14.93,81.2,1.19,98.56-30.68,.39-.71,.74-1.43,1.09-2.14,22.52-.22,44-11.27,54.2-29.99,14.18-26.04,1.13-57.03-29.15-69.22-5.01-2.02-10.18-3.38-15.38-4.15-1.92-17.79-14.43-34.26-34.61-42.38-30.28-12.19-66.33-.97-80.51,25.06-3.46,6.35-5.29,13-5.65,19.6-26.26-3.95-53.38,7.45-65.24,29.2Z"/><ellipse class="cls-1" cx="296.77" cy="449.63" rx="61.25" ry="73.48" transform="translate(-159.86 735.52) rotate(-88.62)"/></g></svg>