<?xml version="1.0" encoding="UTF-8"?><svg id="Laag_1" xmlns="http://www.w3.org/2000/svg" xmlns:xlink="http://www.w3.org/1999/xlink" viewBox="0 0 18.01 50.01"><defs><style>.cls-1{fill:#006837;}.cls-2{clip-path:url(#clippath);}.cls-3{fill:none;}</style><clipPath id="clippath"><rect class="cls-3" x="0" width="18" height="50"/></clipPath></defs><g class="cls-2"><path class="cls-1" d="M17.34,5.34c-.58-1.86-1.46-3.19-2.71-4.08C13.19,.24,11.82-.16,10.57,.06c-1.21,.22-2.28,1.02-3.19,2.37-.14,.2-.25,.4-.36,.58-1.92,3.4-2.34,6.79-2.36,6.9-.42,2.82-.2,5.87,.02,8.83,.3,4.06,.58,7.9-1.12,9.15-.18,.14-.27,.16-.46,.23-.32,.1-.74,.24-1.31,.74C.04,30.42,.07,32.48,.14,35.89c.02,.98,.04,2.09,.03,3.38-.02,1.31-.05,2.45-.1,3.45-.14,3.4-.22,5.46,1.52,6.58,.67,.44,1.48,.62,2.41,.54H12.32c.38,.12,.72,.17,1.02,.17,.44,0,.79-.11,1.06-.23,1.69-.78,1.59-2.77,1.43-5.79-.09-1.67-.2-3.76-.07-6.26,.05-.96,.13-1.86,.19-2.67,.25-2.95,.45-5.28-1.29-6.61-.54-.41-1.02-.53-1.37-.61-.27-.06-.38-.09-.55-.25-.46-.4-.48-1.03-.41-2.88,.03-.77,.05-1.63,.03-2.67-.03-1.25-.18-3.36-.33-5.39-.13-1.68-.28-3.77-.25-4.13,.04-.37,.09-.71,.15-1.03,.02,.02,.05,.05,.06,.06,.22,.22,.43,.45,.64,.68,.42,.46,.86,.92,1.35,1.35,.32,.27,1.3,1.12,2.37,.75,1.07-.37,1.33-1.66,1.41-2.09,.45-2.29,.32-4.62-.41-6.91v.02Zm-3.68,29.53c-.07,.82-.14,1.74-.2,2.75-.14,2.62-.02,4.77,.07,6.5,.07,1.45,.17,3.26-.1,3.56-.05,.03-.22,.04-.51-.08-.13-.05-.27-.07-.41-.07H3.82c-.43,.05-.77-.02-1.01-.17-.6-.39-.58-1.75-.47-4.55,.04-1.01,.08-2.17,.1-3.51,.02-1.31,0-2.45-.03-3.44-.05-3.27-.04-4.45,.87-5.25,.08-.07,.14-.12,.2-.16h.05c.11,0,.23-.02,.33-.05,1.41-.44,2.87-.68,4.35-.73,1.7-.05,3.41,.16,5.07,.63,.69,.55,.6,2.01,.39,4.55v.03Zm1.83-23.07s0,.05,0,.06c0,0-.03-.02-.04-.03-.4-.35-.78-.75-1.16-1.18-.23-.25-.46-.49-.69-.73-.3-.3-.6-.6-.96-.85-.69-.48-1.27-.43-1.63-.3-.35,.13-.83,.44-1.06,1.21-.21,.68-.35,1.43-.45,2.28-.05,.45,.04,1.67,.24,4.55,.14,1.92,.3,4.09,.32,5.28,.03,.97,0,1.81-.03,2.54-.04,1.04-.06,1.97,.11,2.78-.67-.05-1.33-.07-1.99-.05-.53,.02-1.06,.06-1.6,.13,.88-2.31,.65-5.55,.41-8.93-.21-2.83-.42-5.75-.04-8.34,0-.03,.4-3.09,2.08-6.06,.08-.15,.17-.29,.26-.43,.57-.84,1.13-1.3,1.71-1.41,.63-.12,1.42,.16,2.34,.81,.83,.59,1.42,1.51,1.84,2.88,.6,1.92,.71,3.86,.34,5.77Z"/></g></svg>