<?xml version="1.0" encoding="UTF-8"?><svg id="Laag_1" xmlns="http://www.w3.org/2000/svg" xmlns:xlink="http://www.w3.org/1999/xlink" viewBox="0 0 50 50"><defs><style>.cls-1{fill:#006837;}.cls-2{clip-path:url(#clippath);}.cls-3{fill:none;}</style><clipPath id="clippath"><rect class="cls-3" y="0" width="50" height="50"/></clipPath></defs><g class="cls-2"><path class="cls-1" d="M48.99,37.52c.38-.61,.27-1.6,.04-3.58-.18-1.56-.61-2.29-.53-3.02,.06-.54-.27-1.12-.38-1.68-.05-.25-.08-.59,.04-.77,1.05-1.55,1.01-3.1,.02-4.71,2.49-2.39,2.42-4.3-.13-6.66-.18-.16-.26-.5-.26-.76-.01-1.51-.67-2.61-1.92-3.38-.21-.13-.44-.4-.46-.63-.3-2.86-1.06-3.73-3.81-4.28-.11-.53-.16-1.09-.34-1.6-.64-1.83-2.49-2.81-4.44-2.31-1.31,.33-2.6,.78-3.96,1.19,0-.32,0-.55,0-.77-.05-1.84-1.42-3.52-3.15-3.62-.8-.05-1.65,.45-2.42,.32-.8-.14-1.48-.89-2.28-1.11-1.5-.41-2.74,.27-3.74,1.37-2.18-1.32-3.92-1.38-5.18,.17-.91,1.11-2.05,2-2.88,3.09-.96,1.26-1.88,2.34-3.26,3.18-.73,.44-1.03,1.62-1.58,2.54-2.79,.14-3.97,1.31-4.14,4.2-.01,.22-.22,.51-.41,.63-1.94,1.11-2.57,2.45-2.16,4.6,.05,.24,0,.59-.14,.77-1.77,2.19-1.83,3.32-.24,5.76-1.44,1.95-1.71,3.55-.58,4.98,.62,.78,1.53,1.38,2.41,1.86,.83,.44,1.05,.88,.85,1.82-.47,2.15,.42,3.68,2.47,4.58,.21,.09,.48,.29,.51,.47,.3,1.94,1.46,3.04,3.31,3.5-.23,1.99,.35,3.57,2.19,4.39,1.93,.86,3.48,.1,4.75-1.49,.51,.62,.96,1.2,1.45,1.76,1.4,1.59,3.11,1.87,4.94,.85,.22-.13,.59-.27,.76-.18,1.68,1,3.25,.75,4.76-.44,1.18,1.25,2.56,1.83,4.2,1.26,1.65-.57,2.41-1.9,2.57-3.61,2.81,.88,3.92,.48,5.42-1.9,.08-.13,.2-.34,.3-.33,.37,.02,.72-.02,1.05-.09,.93-.21,2.03-.78,2.44-1.48,.63-1.05-.22-1.69,.28-2.68,.71-1.42,2.75-.74,3.63-2.17h0Zm-4.62-22.69c.48,.21,.94,.73,1.17,1.22,.31,.66-.36,.77-.79,.93-3.11,1.1-6.22,2.2-9.33,3.29-2.02,.7-4.04,1.4-6.08,2.06-.56,.18-1.18,.19-1.82,.28-.14-1.07-.1-1.82,.93-2.43,4.5-2.64,9.41-4.06,14.42-5.2,.49-.11,1.09-.32,1.49-.14h0Zm-3.31-4.35c1.14-.25,1.92,.19,2.09,1.11,.17,.95-.33,1.6-1.48,1.87-4.67,1.1-9.14,2.71-13.27,5.23-.13,.08-.28,.12-.65,.27,.37-1.39,.67-2.6,1.04-3.8,.07-.23,.39-.42,.63-.54,3.71-1.89,7.6-3.24,11.65-4.14h0Zm-9.18-2.21c1.77-.66,3.54-1.34,5.33-1.92,1-.33,1.82,.16,2.04,1.05,.21,.84-.3,1.52-1.24,1.9-2.59,1.03-5.16,2.11-7.74,3.17-.14,.06-.28,.12-.72,.29,.66-1.52,1.19-2.77,1.76-4.01,.09-.21,.34-.39,.56-.48Zm-4.19-4.14c.5-.99,1.28-1.31,2.12-.89,.82,.41,1,1.24,.58,2.27-1.33,3.21-2.8,6.37-3.88,9.66-.72,2.19-.87,4.58-1.28,6.88-.03,.19-.06,.37-.08,.53-.11,.05-.16,.09-.22,.09-2.7,.19-2.92-.09-2.55-2.92,.63-4.77,2.33-9.19,4.31-13.51,.33-.71,.65-1.41,1.01-2.11h0Zm-4.9-.74c.36-.75,.85-1.23,1.71-1.13,1.05,.13,1.53,1.2,1.07,2.32-.92,2.29-1.93,4.55-2.73,6.87-1.12,3.24-1.73,6.6-1.88,10.04,0,.19-.04,.38-.07,.57-.14,.06-.18,.09-.2,.08-2.81-.53-2.91-.69-2.54-3.53,.69-5.35,2.32-10.39,4.64-15.23Zm-5.59,.44c.4-.92,1.23-1.29,2.03-.96,.79,.32,1.15,1.21,.75,2.12-2.09,4.87-2.9,10.03-3.23,15.28,0,.15-.05,.31-.1,.58-.87-.4-1.69-.74-2.47-1.18-.2-.11-.35-.53-.33-.79,.37-5.19,1.27-10.26,3.34-15.06h0Zm-6.25,6.44c.21-.91,1-1.3,2.08-.96-.19,.93-.39,1.87-.59,2.81-1.16-.18-1.72-.89-1.5-1.85Zm-4.42,3.5c.28-.83,.91-1.2,1.73-.99,1.17,.31,2.32,.71,3.47,1.12,.17,.06,.36,.38,.34,.56-.07,.84-.21,1.66-.34,2.63-1.52-.5-2.93-.93-4.31-1.43-.81-.3-1.17-1.1-.9-1.9h0Zm-3.92,9.02c.47-.78,1.34-.95,2.27-.36,3.08,1.97,6.29,3.64,9.73,4.87,8.89,3.18,17.65,2.61,26.3-.92,1.16-.47,2.29-1.02,3.43-1.53,.99-.44,1.83-.22,2.23,.58,.41,.84,.1,1.65-.89,2.14-6.07,3.01-12.43,4.87-18.91,4.86-8.86,.02-16.48-2.89-23.57-7.48-.85-.56-1.06-1.4-.59-2.18h0Zm6.33,13.73c-.19,.69-.7,1.08-1.42,1.05-.74-.03-1.3-.39-1.42-1.18-.07-.46-.01-.94-.01-1.6,1.04,.39,1.82,.64,2.56,.99,.18,.08,.34,.52,.28,.73h0Zm1.16,4.69c-.8-.34-1.08-1.03-.85-1.84,.28-.99,.68-1.94,1.07-3.01,.97,.28,1.87,.55,2.91,.85-.46,1.2-.81,2.34-1.32,3.41-.35,.73-1.06,.92-1.81,.59h0Zm4.63,4.56c-.27,.29-1.16,.25-1.63,.04-.75-.33-.82-1.13-.56-1.85,.42-1.18,.91-2.33,1.46-3.69,.6,1.32,1.26,2.36,1.51,3.5,.13,.6-.31,1.5-.77,2Zm7.9,1.26c-.57,.59-1.48,.67-2.08,.05-2.46-2.58-3.88-5.74-4.96-9.3,1.15,.2,2.13,.34,3.08,.56,.18,.04,.36,.34,.45,.56,.85,2.2,1.95,4.24,3.51,6.02,.61,.7,.56,1.52,0,2.11Zm4.54,.09c-.76,.46-1.65,.21-2.18-.74-1.23-2.24-2.41-4.51-3.59-6.77-.13-.25-.19-.54-.32-.93,1.05,.1,2,.15,2.94,.3,.25,.04,.52,.33,.66,.57,.97,1.72,1.9,3.46,2.86,5.19,.57,1.01,.45,1.89-.36,2.37h0Zm5.71,.39c-.81,.5-1.68,.23-2.24-.78-1.36-2.46-2.68-4.93-4.15-7.65,1.23,0,2.15-.04,3.07,.03,.24,.02,.53,.31,.66,.56,1.03,1.83,2.03,3.69,3.03,5.54,.53,.99,.38,1.84-.37,2.31h0Zm-2.83-10.6c-9.13-.06-17.07-1.38-24.57-4.89-.81-.38-1.61-.82-2.37-1.28-.87-.53-1.09-1.38-.64-2.16,.44-.76,1.28-.95,2.18-.47,9.41,5.06,19.45,6.49,29.92,5.22,3.33-.41,6.51-1.43,9.29-3.45,.82-.59,1.7-.44,2.2,.29,.51,.74,.35,1.59-.48,2.21-2.69,2.01-5.77,3.12-9.01,3.7-2.45,.44-4.95,.65-6.51,.84h0Zm8.21,7.41c-.82,.24-1.6-.16-1.89-1.06-.48-1.48-.91-2.98-1.4-4.6,1.03-.19,1.96-.37,2.99-.56,.45,1.5,.91,2.91,1.29,4.35,.23,.88-.23,1.64-.99,1.86h0Zm4.13-2.74c-.82,.21-1.5-.04-1.81-.86-.37-.96-.63-1.96-.97-3.02,.96-.34,1.86-.65,2.85-1,.33,1.1,.67,2.11,.92,3.14,.2,.8-.25,1.56-1,1.75h0Zm4.8-5.95c-.08,.53-.27,1.18-.64,1.48-.34,.26-1.05,.26-1.48,.09-.36-.15-.62-.69-.77-1.12-.04-.12,.42-.47,.69-.65,.55-.37,1.14-.69,1.83-1.12,.16,.53,.43,.95,.37,1.32Zm-.63-13.66c-3.92,1.52-7.81,3.12-11.78,4.5-3.04,1.05-6.22,1.55-9.45,1.56-5.11,.05-9.79-1.56-14.23-3.95-2.18-1.17-4.28-2.5-6.39-3.8-1-.61-1.25-1.47-.75-2.28,.49-.81,1.35-.9,2.35-.31,2.53,1.48,5.02,3.03,7.61,4.38,6.27,3.26,12.83,3.79,19.51,1.59,3.99-1.31,7.87-2.95,11.81-4.43,.41-.15,.87-.32,1.28-.26,.7,.09,1.14,.58,1.21,1.31,.09,.9-.42,1.41-1.17,1.69h0Z"/></g></svg>