<?xml version="1.0" encoding="UTF-8"?><svg id="Laag_1" xmlns="http://www.w3.org/2000/svg" viewBox="0 0 161.61 149.38"><defs><style>.cls-1{fill:#fff;}.cls-2,.cls-3{fill:#2d2222;}.cls-2,.cls-4{opacity:.25;}.cls-5{fill:#544036;}.cls-6{fill:#faa;}.cls-7{fill:#634e42;}.cls-8{stroke:#1d1d1b;}.cls-8,.cls-9{fill:none;stroke-linecap:round;stroke-linejoin:round;stroke-width:5px;}.cls-10{fill:#006837;}.cls-11{fill:#004924;}.cls-12{fill:#d8ae00;}.cls-9{stroke:#2d2222;}.cls-13{fill:#31a05e;}.cls-14{fill:#ffcd00;}.cls-15{fill:#473a39;}.cls-16{fill:#3cce77;}.cls-17{fill:#1d1d1b;}.cls-18{fill:#ededed;}</style></defs><g id="WOOLY_Wink"><g id="Mascotte"><g id="Legs"><g><path class="cls-15" d="M72.07,141.57c-.88,0-1.69,.32-2.32,.85-.4-.15-.83-.24-1.28-.24-.3,0-.59,.04-.86,.11-.6-.45-1.34-.72-2.15-.72-1.99,0-3.6,1.61-3.6,3.6s1.61,3.6,3.6,3.6c.3,0,.59-.04,.86-.11,.6,.45,1.34,.72,2.15,.72,.88,0,1.69-.32,2.32-.85,.4,.15,.83,.24,1.28,.24,1.99,0,3.6-1.61,3.6-3.6s-1.61-3.6-3.6-3.6Z"/><path class="cls-7" d="M59.94,124.98l1.87,20.19c.76-.61,3.16-2.39,6.73-2.52,3.72-.14,6.33,1.59,7.1,2.15,1.54-6.6,3.08-13.21,4.62-19.81h-20.32Z"/></g><g><path class="cls-15" d="M89.54,141.57c.88,0,1.69,.32,2.32,.85,.4-.15,.83-.24,1.28-.24,.3,0,.59,.04,.86,.11,.6-.45,1.34-.72,2.15-.72,1.99,0,3.6,1.61,3.6,3.6s-1.61,3.6-3.6,3.6c-.3,0-.59-.04-.86-.11-.6,.45-1.34,.72-2.15,.72-.88,0-1.69-.32-2.32-.85-.4,.15-.83,.24-1.28,.24-1.99,0-3.6-1.61-3.6-3.6s1.61-3.6,3.6-3.6Z"/><path class="cls-7" d="M101.68,124.98l-1.87,20.19c-.76-.61-3.16-2.39-6.73-2.52-3.72-.14-6.33,1.59-7.1,2.15-1.54-6.6-3.08-13.21-4.62-19.81h20.32Z"/></g><g class="cls-4"><path class="cls-3" d="M61.09,132.91c.4,.16,.8,.29,1.21,.4,3.61,.23,7.34,.03,10.89-.25,1.77-.14,3.55-.31,5.32-.5,.59-2.53,1.18-5.05,1.77-7.58h-20.32l.72,7.78c.14,.04,.28,.09,.41,.14Z"/><path class="cls-3" d="M90.56,133.8c4.05,.55,7.57,.42,10.29,.11,.28-2.97,.57-5.95,.85-8.92h-20.32c.55,2.36,1.1,4.71,1.65,7.07,2.08,.69,4.61,1.35,7.53,1.75Z"/></g></g><g id="Arms"><g><path class="cls-15" d="M32.55,96.14c0-1.98,2.08-3.4,3.69-3.61,3.49-.45,7.7,4.37,6.85,8.1-.34,1.48-1.67,3.61-3.69,3.61-1.5,0-2.79-.88-3.37-2.14-1.64-.19-2.92-1.58-2.92-3.27,0-.23,.02-.46,.07-.67-.4-.58-.63-1.27-.63-2.01Z"/><path class="cls-7" d="M48.41,81.9c-1.02,.65-2.39,1.69-3.6,3.27-2.56,3.35-2.72,6.97-4.63,7.22-.56,.07-2.46,.01-3.23,.08-.02,0-.62,.05-.62,.05,0,0,2.17,.63,3.67,1.73,.23,.17,1.48,1.11,2.14,2.49,1.47,3.12-.95,6.74-1.16,7.05,1.62-.53,2.58-1.37,3.26-1.93,2.17-1.78,1.94-2.85,3.78-4.21,1.56-1.15,2.28-.74,5.34-2.08,1.73-.75,3.06-1.56,3.91-2.13-2.96-3.85-5.92-7.69-8.88-11.54Z"/><path class="cls-2" d="M48.44,81.9c-1.02,.65-2.39,1.69-3.6,3.27-1.7,2.21-2.34,4.54-3.13,5.94,.03,.11,.09,.26,.17,.44,.7,1.46,2.26,1.99,3.04,2.35,1.03,.47,2.36,1.4,3.64,3.41,1.25-.75,2.13-.56,4.84-1.74,1.73-.75,3.06-1.56,3.91-2.13-2.96-3.85-5.92-7.69-8.88-11.54Z"/></g></g><g><path class="cls-14" d="M82.02,67.21c-9.14,1.03-16.57,2.82-21.96,4.39-10.38,3.03-12.31,5.03-13.18,7.1-1.82,4.33,.03,11.25,3.83,13.36,1.26,.7,2.49,.74,3.32,1.98,1.18,1.75,.48,4.31-.33,6.25,17.13-.03,34.27-.06,51.4-.09-.24-3.34-.37-5.14-.37-5.14h0c4.26-3.48,8.51-6.95,12.77-10.43-6.74-2.19-14.42-5.25-22.56-9.6-4.8-2.56-9.1-5.22-12.92-7.82Z"/><path class="cls-12" d="M92.12,100.23c2.62-3.04,4.76-6.17,3.82-7.61-.66-1.02-2.34-.41-2.8-1.3-.87-1.67,4.25-5.42,10.38-12.22,1.75-1.94,3.09-3.59,3.94-4.65-.26-.26-.4-.41-.4-.41h0s-18.19-6.39-36.78-4.38c-4.51,.49-8.1,1.37-10.21,1.95,0,0-10.69,1.92-12.92,6.56,0,0-.26,.54-.26,.54,16.14,.24,18.78,3.27,18.78,3.27,1.68,1.88,1.99,4.36,2.52,8.65,.5,4,.14,7.36-.27,9.64,8.07-.01,16.13-.03,24.2-.04Z"/><path class="cls-10" d="M89.93,127.74c.27,.03,.6,.07,.76,.07,.25,0,.51,0,.76,.01,1.53-.25,3.13,0,4.43,.8,.03,.02,.05,.03,.08,.05,.62,.03,1.25,.06,1.87,.09,.82,.03,1.64,.08,2.46,.08,.34,0,.67-.02,1-.03,.06-.01,.12-.03,.19-.05,.83-.26,1.67-.52,2.5-.79,.36-.12,.72-.23,1.08-.36,.05-.02,.23-.08,.41-.14,.19-.08,.5-.22,.57-.25,.41-.21,.8-.44,1.19-.68,.02-.03,.04-.05,.07-.07,.23-.25,.49-.48,.72-.73,1.36-1.47,3.23-2.04,5.08-1.89,1.42-3.81-2.1-11.82-9.03-27.61-.01-.02-.04-.09-.05-.11,0,0-.51-.34-10.14-6.78,1.99-6.76,3.99-13.52,5.98-20.28l-8.88-.56-4.02,19.34h-14.6l-3.25-16.35-6.73,1.59,2.43,15.7c-7.15,4.65-10.84,7.06-10.84,7.06,0,0,0,0,0,.02-1.85,6.44-2.5,11.24-2.8,13.01-1.33,8.04-4.71,10.27-4.94,12.89,.71,.32,1.36,.77,1.87,1.37,.06,.07,.1,.12,.13,.16,.25,.13,.51,.27,.76,.4,.71,.37,1.37,.73,2.03,1.19,.3,.21,.67,.41,.95,.64,.08,.03,.16,.06,.25,.08,.82,.24,1.66,.37,2.5,.51,1,.17,1.99,.36,2.98,.55,.42,.08,.84,.16,1.26,.23-.03,0,.62,.1,.98,.16,.31,.03,1.01,.12,1.1,.12,.42,.03,.85,.06,1.27,.08,.43,.01,.85,.01,1.27,0,.48-.26,1-.44,1.55-.52,.14-.03,.25-.05,.33-.06,.15-.08,.31-.17,.46-.25,.87-.43,1.78-.81,2.7-1.11,1.09-.36,2.22-.56,3.34-.78,2.59-.51,5.15-1.33,7.81-1.35,3.17-.03,6.13,1.82,8.7,3.51,.49,.32,.98,.66,1.44,1.02Z"/><g><path class="cls-11" d="M95.22,84.84c1.55-5.25,3.1-10.5,4.65-15.76l-8.88-.56-3.14,15.09c2.53,.17,5,.56,7.37,1.23Z"/><path class="cls-11" d="M71.48,83.35c-.78-3.95-1.57-7.89-2.35-11.84l-6.73,1.59c.58,3.76,1.16,7.51,1.74,11.27,1.11-.29,2.37-.55,3.77-.74,1.3-.17,2.49-.25,3.57-.27Z"/><path class="cls-11" d="M108.21,121.23c-5.02,6.13-16.61,6.77-22.36,2.31-1.87-1.45-2.96-3.32-5.61-3.71-2.73-.41-4.73,1.1-6.79,2.19-6.97,3.69-17.32,3.97-21.52-.44-.87-.91-2.26-2.85-2.38-6.79-1.92,2.2-4.11,5.48-3.13,8.4,0,0,.07,.19,.16,.39,.81,1.77,4.1,5.36,12.92,6.44,8.69,1.06,9.91-1.88,19.25-1.5,6.99,.29,6.69,1.95,13.36,2.24,2.9,.13,17.65,.77,20.93-6.73,.39-.88,1.89-4.79-2.04-11.46-.05,4.87-1.9,7.56-2.8,8.66Z"/></g><g><path class="cls-13" d="M68.84,100.2c-.03-1.25,.74-2.37,1.88-2.77,1.03-.36,2.2-.08,2.98,.71,.88,.52,2.87,1.53,5.58,1.57,2.9,.04,5.03-1.05,5.91-1.57,.88-.98,2.21-1.22,3.13-.68,.88,.52,1.05,1.54,1.07,1.71,.18,.86,1.02,5.19-1.71,9.23-.52,.77-3.61,5.15-8.95,5.07-4.71-.07-7.53-3.55-7.94-4.09-3.11-3.98-2.1-8.58-1.96-9.18Z"/><g><circle class="cls-13" cx="68.47" cy="87.73" r="2.2"/><circle class="cls-16" cx="68.47" cy="87.73" r=".94"/></g><g><circle class="cls-13" cx="90.07" cy="88.67" r="2.2"/><circle class="cls-16" cx="90.07" cy="88.67" r=".94"/></g></g><g><g><path class="cls-14" d="M83.73,104.39c0-.89-.67-1.61-1.5-1.61-.18,0-.34,.04-.5,.1,0-.03,0-.06,0-.1,0-.89-.67-1.61-1.5-1.61-.53,0-1,.3-1.26,.75-.26-.45-.73-.75-1.26-.75-.83,0-1.5,.72-1.5,1.61,0,.25,.06,.49,.15,.7-.2-.11-.42-.17-.66-.17-.83,0-1.5,.72-1.5,1.61,0,.74,.47,1.36,1.11,1.55-.16,.25-.25,.56-.25,.88,0,.89,.67,1.61,1.5,1.61,.48,0,.9-.24,1.17-.62,.14,.73,.74,1.27,1.46,1.27,.83,0,1.5-.72,1.5-1.61,0-.04,0-.09-.01-.13,.27,.28,.64,.46,1.04,.46,.83,0,1.5-.72,1.5-1.61,0-.35-.11-.67-.28-.93,.46-.27,.77-.79,.77-1.4Z"/><circle class="cls-15" cx="78.98" cy="105.39" r="1.5"/></g><g><circle class="cls-16" cx="87.57" cy="98.95" r=".67"/><circle class="cls-16" cx="71.45" cy="99.16" r=".67"/><ellipse class="cls-16" cx="70.18" cy="102.23" rx=".43" ry=".86"/><ellipse class="cls-16" cx="70.2" cy="105.43" rx=".43" ry=".86" transform="translate(-19.99 16.5) rotate(-11.74)"/><ellipse class="cls-16" cx="71.39" cy="108.33" rx=".43" ry=".86" transform="translate(-41.18 43.83) rotate(-26.8)"/><ellipse class="cls-16" cx="73.66" cy="110.56" rx=".43" ry=".86" transform="translate(-59.14 114.3) rotate(-57.94)"/><ellipse class="cls-16" cx="76.57" cy="111.6" rx=".43" ry=".86" transform="translate(-55.37 141.76) rotate(-68.42)"/><ellipse class="cls-16" cx="80.53" cy="111.6" rx=".86" ry=".43" transform="translate(-16.51 14.01) rotate(-9.03)"/><ellipse class="cls-16" cx="84.16" cy="109.73" rx=".86" ry=".43" transform="translate(-43.59 56.78) rotate(-30)"/><ellipse class="cls-16" cx="86.59" cy="107.05" rx=".86" ry=".43" transform="translate(-51.06 110.12) rotate(-52.31)"/><ellipse class="cls-16" cx="88.08" cy="104.37" rx=".86" ry=".43" transform="translate(-21.9 185.32) rotate(-86.19)"/><ellipse class="cls-16" cx="88.44" cy="101.64" rx=".43" ry=".86" transform="translate(-6.47 6.02) rotate(-3.76)"/></g></g></g><g id="Head"><ellipse class="cls-15" cx="80.15" cy="75.86" rx="10.17" ry="6.49"/><ellipse class="cls-7" cx="80.81" cy="44.01" rx="41.02" ry="34.79"/><g class="cls-4"><path class="cls-3" d="M69.31,20.3c2.01-3.96,2.58-7.74,2.74-10.28-18.44,3.41-32.25,17.33-32.25,33.99,0,2.15,.23,4.26,.67,6.3,3.96-5.96,7.91-10.11,10.8-12.81,8.12-7.6,14.16-9.59,18.04-17.19Z"/><path class="cls-3" d="M96.41,21.61c1.76,7.88,9.69,9.85,16.63,19.16,2.04,2.74,4.87,7.27,6.77,14.09,.7-1.81,1.49-4.35,1.84-7.47,.13-1.11,.19-2.23,.19-3.37,0-14.22-10.06-26.44-24.46-31.84-.8,2.03-1.85,5.54-.98,9.43Z"/></g><g><g><ellipse class="cls-1" cx="62.12" cy="40.84" rx="15.35" ry="14.93"/><polyline class="cls-8" points="56.6 34.91 67.65 41.31 56.6 46.76"/></g><g><ellipse class="cls-1" cx="99.49" cy="40.84" rx="15.35" ry="14.93"/><path class="cls-17" d="M99.49,32.57c-1.21,0-2.36,.25-3.4,.69v4.78h-4.61c-.32,.88-.5,1.82-.5,2.8,0,4.57,3.81,8.27,8.52,8.27s8.52-3.7,8.52-8.27-3.81-8.27-8.52-8.27Z"/></g></g><path class="cls-6" d="M86.86,54.45c1.51,2.99-1.77,9.28-6.05,9.28-4.28,0-7.56-6.29-6.05-9.28,1.74-3.45,10.36-3.45,12.1,0Z"/><path class="cls-9" d="M72.63,65.35c2.01,3.24,5.66,5.01,9.28,4.51,4.71-.65,6.88-4.8,7.06-5.17"/></g><g><path class="cls-5" d="M104.51,78.84c.68-1,1.76-2.33,3.38-3.5,3.42-2.46,7.05-2.51,7.36-4.4,.12-.74-.06-1.2-.03-1.97,.02-.63,.17-1.1,.21-1.26,.12-.5,.34-1.18,.76-1.93,3.69,.81,7.39,1.63,11.08,2.44-.15,2.44-.75,4.26-1.19,5.06-.39,.69-.88,1.32-.88,1.32-.24,.3-.46,.54-.61,.7-4.39,4.61-8.16,7.06-8.16,7.06-.67,.44-1.69,1.07-2.99,1.77-2.97-1.76-5.95-3.52-8.92-5.28Z"/><path class="cls-15" d="M126.67,66.52c.71,.69,.86,2.79,.08,3.84-1.62,2.2-8.3,1.24-10.27-2.1-.18-.31-.83-1.41-.4-2.29,.46-.94,2-1.36,3.87-.99,1.26-1.07,3.15-1.04,4.38,.12,.17,.16,.32,.33,1.82,1.02,0,0,.3,.19,.53,.41Z"/><path class="cls-2" d="M113.64,77.25c-1.28-1.08-2.54-2.1-3.77-3.07-.61,.29-1.28,.67-1.98,1.16-1.62,1.15-2.7,2.47-3.38,3.47,3.03,1.7,6.05,3.39,9.08,5.09,1.18-.53,2.44-1.24,3.71-2.17,.26-.19,.51-.38,.75-.58-1.38-1.29-2.85-2.59-4.41-3.91Z"/><path class="cls-14" d="M107.06,74.03c3.48,3.53,6.96,7.07,10.44,10.6-3.64,2.24-7.28,4.49-10.91,6.73-7.73-1.22-12.69-2-12.69-2,0,0,2.3-7.88,2.3-7.88,1.26-.46,2.67-1.08,4.14-1.93,3.07-1.77,5.26-3.86,6.72-5.52Z"/></g><g id="Ears"><g><path class="cls-7" d="M130.99,16.8c2.43,16.69,7.91,22.62,12.74,24.81,4.71,2.14,9.99,1.41,14.39,6.07,2.04,2.16,4.37,6.21,3.17,9.25-2.13,5.41-15.09,6.71-24.2,3.09-13.84-5.51-17.55-21.91-18.04-24.2,.01-2.03,.32-5.36,2.03-8.97,2.93-6.2,8.05-9.11,9.91-10.05Z"/><path class="cls-6" d="M136.25,52.36c-9.48-6.58-11.99-16.29-12.53-18.64-1.46-9.65-3.02-14.49-4.7-14.53-.67-.02-1.35,.73-2.06,2.24,.29,2,.58,3.99,.87,5.99-.11,.27-.18,.55-.19,.81-.03,.59,.25,.57,.61,2.04,.27,1.85,.54,3.7,.8,5.55,.48,2.29,4.2,18.7,18.04,24.2,9.08,3.62,22,2.33,24.18-3.05-1.91,.45-13.9,3.1-25.02-4.61Z"/><g><ellipse class="cls-15" cx="152.4" cy="47.32" rx="1.3" ry="3.26" transform="translate(56.69 175.01) rotate(-70.4)"/><ellipse class="cls-15" cx="145.81" cy="44.98" rx=".62" ry="1.47" transform="translate(63.98 173.77) rotate(-74.71)"/></g></g><g><path class="cls-7" d="M34.05,12.29c-3.72,20.38-10.31,27.22-16.16,29.31-4.28,1.53-9.94,1.35-14.39,6.07-2.04,2.16-4.37,6.21-3.17,9.25,2.12,5.39,15.51,6.43,24.2,3.09,19.06-7.32,20.91-37.78,20.99-39.44-3.82-2.76-7.64-5.53-11.46-8.29Z"/><path class="cls-6" d="M25.36,52.36c9.48-6.58,11.99-16.29,12.53-18.64,2.2-10.21,4.15-15.27,5.85-15.19,.8,.04,1.55,1.22,2.24,3.55-1.14,4.58-2.28,9.16-3.42,13.74-.48,2.29-4.2,18.7-18.04,24.2-9.08,3.62-22,2.33-24.18-3.05,1.91,.45,13.9,3.1,25.02-4.61Z"/><g><ellipse class="cls-15" cx="9.64" cy="48.02" rx="3.26" ry="1.3" transform="translate(-15.55 6.02) rotate(-19.6)"/><ellipse class="cls-15" cx="16.23" cy="45.68" rx="1.47" ry=".62" transform="translate(-11.47 5.9) rotate(-15.29)"/></g></g><path class="cls-18" d="M66.13,14.81c1.04-4.6-1.85-9.17-6.45-10.21-.55-.12-1.1-.19-1.65-.21-1.44-1.98-3.57-3.46-6.15-4.05-5.63-1.27-11.23,2.26-12.51,7.9-.03,.13-.05,.25-.08,.38-3.1,.72-5.67,3.14-6.42,6.44-1.04,4.6,1.85,9.17,6.45,10.21,.76,.17,1.52,.23,2.27,.2,.89,2.79,3.19,5.06,6.26,5.75,4.6,1.04,9.18-1.85,10.21-6.45,.25-1.12,.27-2.24,.09-3.31,3.76-.16,7.1-2.81,7.96-6.65Z"/><path class="cls-18" d="M129.91,27.43c3.86-2.72,4.78-8.05,2.06-11.9-.33-.46-.69-.88-1.09-1.26,.26-2.43-.33-4.97-1.85-7.12-3.33-4.72-9.85-5.85-14.57-2.52-.11,.07-.21,.15-.31,.23-2.78-1.54-6.31-1.47-9.08,.48-3.86,2.72-4.78,8.05-2.06,11.9,.45,.64,.97,1.19,1.55,1.67-1.21,2.67-1.02,5.89,.79,8.46,2.72,3.86,8.05,4.78,11.9,2.06,.94-.66,1.71-1.48,2.29-2.4,2.9,2.4,7.15,2.67,10.37,.4Z"/><ellipse class="cls-1" cx="120.72" cy="12.83" rx="10.05" ry="10.37" transform="translate(36.76 100.52) rotate(-52.31)"/><ellipse class="cls-1" cx="49.23" cy="10.06" rx="10.65" ry="10.05" transform="translate(-.83 5.78) rotate(-6.66)"/></g></g></g></svg>