<?xml version="1.0" encoding="UTF-8"?><svg id="Laag_1" xmlns="http://www.w3.org/2000/svg" viewBox="0 0 237.29 57.82"><defs><style>.cls-1{fill:#1d1d1b;}</style></defs><path class="cls-1" d="M7.25,5.09c1.78-.06,3.27,.08,4.48,.43s2.3,1.02,3.29,2,1.57,2.49,1.76,4.53c.13,1.59,.38,3.64,.76,6.15s.79,5.13,1.24,7.86c.44,2.73,.87,5.29,1.29,7.68,.41,2.38,.91,5.1,1.48,8.15l4.1-15.26c.64-1.84,1.38-3.21,2.24-4.1,.86-.89,2.14-1.33,3.86-1.33s3.02,.33,3.91,1,1.54,1.48,1.96,2.43c.41,.95,.74,1.87,1,2.76,.19,.64,.49,1.7,.91,3.19,.41,1.49,.82,3.07,1.24,4.72s.94,3.62,1.57,5.91l.86-7.91,4.01-28.03c.82-1.72,1.86-2.99,3.1-3.81,1.24-.82,3.1-1.14,5.58-.95,3.75,.25,6.05,1.02,6.91,2.29,.86,1.27,.97,2.83,.33,4.67-.32,.89-.8,2.81-1.43,5.77-.64,2.96-1.37,6.5-2.19,10.63-.83,4.13-1.62,8.47-2.38,13.01-.76,4.55-1.43,8.85-2,12.92-.25,2.1-.81,3.7-1.67,4.82-.86,1.11-1.76,1.89-2.72,2.34-.95,.44-2.13,.73-3.53,.86-1.66,.06-3.07-.06-4.24-.38s-2.32-.99-3.43-2c-1.11-1.01-1.99-2.6-2.62-4.77-1.21-4.32-2.7-9.41-4.48-15.25l-5.34,16.21c-.76,1.53-1.7,2.67-2.81,3.43s-2.75,1.14-4.91,1.14c-3.24,0-5.48-.52-6.72-1.57-1.24-1.05-2.21-2.75-2.91-5.1-.19-.82-.57-2.3-1.14-4.43-.57-2.13-1.21-4.62-1.91-7.48-.7-2.86-1.43-5.8-2.19-8.82s-1.46-5.82-2.1-8.39c-.64-2.58-1.37-5.48-2.19-8.72-.26-1.14-.26-2.11,0-2.91,.25-.79,.91-1.54,1.95-2.24,1.05-.7,2.75-1.18,5.1-1.43Z"/><path class="cls-1" d="M68.45,28.45c0-5.08,.89-9.74,2.67-13.97,1.78-4.23,4.19-7.59,7.24-10.11,3.05-2.51,6.42-3.77,10.11-3.77,2.73,0,5.34,.72,7.82,2.14,2.48,1.43,4.67,3.43,6.58,6.01,1.91,2.57,3.4,5.55,4.48,8.91,1.08,3.37,1.62,6.96,1.62,10.77s-.54,7.4-1.62,10.77c-1.08,3.37-2.57,6.34-4.48,8.91-1.91,2.58-4.1,4.58-6.58,6.01-2.48,1.43-5.09,2.14-7.82,2.14-3.69,0-7.05-1.25-10.11-3.77-3.05-2.51-5.46-5.86-7.24-10.06-1.78-4.19-2.67-8.87-2.67-14.01Zm14.59-.38c0,3.69,.25,7.07,.76,10.15,.51,3.09,1.21,5.53,2.1,7.34,.89,1.81,1.87,2.72,2.95,2.72s2.07-.91,2.96-2.72c.89-1.81,1.59-4.26,2.1-7.34,.51-3.08,.76-6.47,.76-10.15s-.25-7.15-.76-10.2c-.51-3.05-1.21-5.5-2.1-7.34-.89-1.84-1.87-2.76-2.96-2.76s-2.06,.92-2.95,2.76c-.89,1.84-1.59,4.29-2.1,7.34-.51,3.05-.76,6.45-.76,10.2Z"/><path class="cls-1" d="M113.73,28.45c0-5.08,.89-9.74,2.67-13.97,1.78-4.23,4.19-7.59,7.24-10.11,3.05-2.51,6.42-3.77,10.11-3.77,2.73,0,5.34,.72,7.82,2.14,2.48,1.43,4.67,3.43,6.58,6.01,1.91,2.57,3.4,5.55,4.48,8.91,1.08,3.37,1.62,6.96,1.62,10.77s-.54,7.4-1.62,10.77c-1.08,3.37-2.57,6.34-4.48,8.91-1.91,2.58-4.1,4.58-6.58,6.01-2.48,1.43-5.09,2.14-7.82,2.14-3.69,0-7.05-1.25-10.11-3.77-3.05-2.51-5.46-5.86-7.24-10.06-1.78-4.19-2.67-8.87-2.67-14.01Zm14.59-.38c0,3.69,.25,7.07,.76,10.15,.51,3.09,1.21,5.53,2.1,7.34,.89,1.81,1.87,2.72,2.95,2.72s2.07-.91,2.96-2.72c.89-1.81,1.59-4.26,2.1-7.34,.51-3.08,.76-6.47,.76-10.15s-.25-7.15-.76-10.2-1.21-5.5-2.1-7.34c-.89-1.84-1.87-2.76-2.96-2.76s-2.06,.92-2.95,2.76c-.89,1.84-1.59,4.29-2.1,7.34-.51,3.05-.76,6.45-.76,10.2Z"/><path class="cls-1" d="M179.7,42.84c.06,0,.63-.01,1.72-.05,1.08-.03,2.41-.06,4-.1,1.59-.03,3.16-.06,4.72-.1,1.56-.03,3.41-.08,5.58-.14,1.4,0,2.58,.11,3.53,.33,.95,.22,1.79,.68,2.53,1.38,.73,.7,1.13,1.78,1.19,3.24,.06,1.4-.33,2.5-1.19,3.29s-1.87,1.33-3.05,1.62c-1.18,.29-2.68,.49-4.53,.62-2.61,.19-4.96,.41-7.05,.67s-4.38,.59-6.86,1c-2.48,.41-4.86,.94-7.15,1.57-2.29,.64-4.18,.87-5.67,.72-1.49-.16-2.65-.51-3.48-1.05-.83-.54-1.42-1.11-1.76-1.71-.35-.61-.52-1-.52-1.19-.06-.44,.06-1,.38-1.67s.92-1.13,1.81-1.38c.32-.06,.48-.97,.48-2.72s-.11-4.01-.33-6.77-.52-5.77-.91-9.01c-.38-3.24-.81-6.45-1.29-9.63-.48-3.18-.94-6-1.38-8.48-.45-2.48-.89-4.32-1.34-5.53-.63-1.84-.7-3.27-.19-4.29,.51-1.02,1.22-1.76,2.14-2.24,.92-.48,2.18-.84,3.77-1.1,1.72-.19,3.16-.17,4.34,.05,1.17,.22,2.29,.76,3.34,1.62,1.05,.86,1.79,2.27,2.24,4.24,.57,2.61,1.25,5.67,2.05,9.2,.79,3.53,1.49,7.58,2.1,12.15,.6,4.58,.87,9.72,.81,15.44Z"/><path class="cls-1" d="M201.44,.23c2.16-.25,3.99-.16,5.48,.29,1.49,.44,2.78,1.52,3.86,3.24,.7,1.08,1.41,2.37,2.15,3.86,.73,1.49,1.4,2.97,2,4.43,.6,1.46,1.29,3.15,2.05,5.05l5.72-13.92c.95-1.14,1.99-1.97,3.1-2.48,1.11-.51,2.65-.7,4.62-.57,5.78,.38,7.91,2.19,6.39,5.43-.32,.64-.89,1.8-1.71,3.48-.83,1.68-1.76,3.56-2.81,5.62-1.05,2.07-2.07,4.08-3.05,6.05-.99,1.97-2.12,4.23-3.39,6.77l.48,23.26c.06,1.08-.06,1.99-.38,2.72-.32,.73-.99,1.37-2,1.91-1.02,.54-2.58,.81-4.67,.81-2.8,0-4.85-.38-6.15-1.14-1.3-.76-2.12-1.6-2.43-2.53-.32-.92-.48-1.6-.48-2.05,0-.25-.02-1.21-.05-2.86-.03-1.65-.05-3.59-.05-5.81s-.02-4.45-.05-6.67c-.03-2.22-.08-4.8-.14-7.72l-12.68-20.21c-.76-1.14-1.19-2.11-1.29-2.91-.1-.79,.24-1.57,1-2.34s2.26-1.33,4.48-1.72Z"/></svg>